<mxfile host="app.diagrams.net" modified="2022-04-05T23:32:23.386Z" agent="5.0 (Windows NT 10.0; Win64; x64) AppleWebKit/537.36 (KHTML, like Gecko) Chrome/99.0.4844.74 Safari/537.36 Edg/99.0.1150.55" etag="UKdqtFVrfeTLbGSCXQwW" version="17.4.0" type="github">
  <diagram id="C5RBs43oDa-KdzZeNtuy" name="Page-1">
    <mxGraphModel dx="1085" dy="563" grid="1" gridSize="10" guides="1" tooltips="1" connect="1" arrows="1" fold="1" page="1" pageScale="1" pageWidth="827" pageHeight="1169" background="#B0E3E6" math="0" shadow="0">
      <root>
        <mxCell id="WIyWlLk6GJQsqaUBKTNV-0" />
        <mxCell id="WIyWlLk6GJQsqaUBKTNV-1" parent="WIyWlLk6GJQsqaUBKTNV-0" />
        <mxCell id="huL2BV7gao-9IOFFSJFY-0" value="Curso" style="swimlane;fontStyle=1;align=center;verticalAlign=top;childLayout=stackLayout;horizontal=1;startSize=26;horizontalStack=0;resizeParent=1;resizeParentMax=0;resizeLast=0;collapsible=1;marginBottom=0;fillColor=#F08E81;strokeColor=#FFFFFF;fontColor=#1A1A1A;" vertex="1" parent="WIyWlLk6GJQsqaUBKTNV-1">
          <mxGeometry x="50" y="110" width="160" height="134" as="geometry" />
        </mxCell>
        <mxCell id="huL2BV7gao-9IOFFSJFY-1" value="- turmas: Turma[]&#xa;- nCreditos: int&#xa;- nCreditosTrab: int&#xa;- nome: String" style="text;strokeColor=none;fillColor=none;align=left;verticalAlign=top;spacingLeft=4;spacingRight=4;overflow=hidden;rotatable=0;points=[[0,0.5],[1,0.5]];portConstraint=eastwest;fontColor=#1A1A1A;" vertex="1" parent="huL2BV7gao-9IOFFSJFY-0">
          <mxGeometry y="26" width="160" height="74" as="geometry" />
        </mxCell>
        <mxCell id="huL2BV7gao-9IOFFSJFY-2" value="" style="line;strokeWidth=1;fillColor=none;align=left;verticalAlign=middle;spacingTop=-1;spacingLeft=3;spacingRight=3;rotatable=0;labelPosition=right;points=[];portConstraint=eastwest;strokeColor=#FFFFFF;fontColor=#1A1A1A;labelBackgroundColor=#B0E3E6;" vertex="1" parent="huL2BV7gao-9IOFFSJFY-0">
          <mxGeometry y="100" width="160" height="8" as="geometry" />
        </mxCell>
        <mxCell id="huL2BV7gao-9IOFFSJFY-3" value="+ method(type): type" style="text;strokeColor=none;fillColor=none;align=left;verticalAlign=top;spacingLeft=4;spacingRight=4;overflow=hidden;rotatable=0;points=[[0,0.5],[1,0.5]];portConstraint=eastwest;fontColor=#1A1A1A;" vertex="1" parent="huL2BV7gao-9IOFFSJFY-0">
          <mxGeometry y="108" width="160" height="26" as="geometry" />
        </mxCell>
        <mxCell id="huL2BV7gao-9IOFFSJFY-4" value="Turma" style="swimlane;fontStyle=1;align=center;verticalAlign=top;childLayout=stackLayout;horizontal=1;startSize=26;horizontalStack=0;resizeParent=1;resizeParentMax=0;resizeLast=0;collapsible=1;marginBottom=0;fillColor=#F08E81;strokeColor=#FFFFFF;fontColor=#1A1A1A;" vertex="1" parent="WIyWlLk6GJQsqaUBKTNV-1">
          <mxGeometry x="360" y="100" width="160" height="168" as="geometry" />
        </mxCell>
        <mxCell id="huL2BV7gao-9IOFFSJFY-5" value="-curso: Curso&#xa;- matriculas: Matricula[]" style="text;strokeColor=none;fillColor=none;align=left;verticalAlign=top;spacingLeft=4;spacingRight=4;overflow=hidden;rotatable=0;points=[[0,0.5],[1,0.5]];portConstraint=eastwest;fontColor=#1A1A1A;" vertex="1" parent="huL2BV7gao-9IOFFSJFY-4">
          <mxGeometry y="26" width="160" height="54" as="geometry" />
        </mxCell>
        <mxCell id="huL2BV7gao-9IOFFSJFY-6" value="" style="line;strokeWidth=1;fillColor=none;align=left;verticalAlign=middle;spacingTop=-1;spacingLeft=3;spacingRight=3;rotatable=0;labelPosition=right;points=[];portConstraint=eastwest;strokeColor=#FFFFFF;fontColor=#1A1A1A;labelBackgroundColor=#B0E3E6;" vertex="1" parent="huL2BV7gao-9IOFFSJFY-4">
          <mxGeometry y="80" width="160" height="8" as="geometry" />
        </mxCell>
        <mxCell id="huL2BV7gao-9IOFFSJFY-7" value="+ getCurso(): Curso" style="text;strokeColor=none;fillColor=none;align=left;verticalAlign=top;spacingLeft=4;spacingRight=4;overflow=hidden;rotatable=0;points=[[0,0.5],[1,0.5]];portConstraint=eastwest;fontColor=#1A1A1A;" vertex="1" parent="huL2BV7gao-9IOFFSJFY-4">
          <mxGeometry y="88" width="160" height="80" as="geometry" />
        </mxCell>
        <mxCell id="huL2BV7gao-9IOFFSJFY-8" value="0..10" style="endArrow=open;html=1;endSize=12;startArrow=diamondThin;startSize=14;startFill=1;edgeStyle=orthogonalEdgeStyle;align=left;verticalAlign=bottom;rounded=0;entryX=0.43;entryY=-0.01;entryDx=0;entryDy=0;entryPerimeter=0;exitX=0.5;exitY=0;exitDx=0;exitDy=0;strokeColor=#182E3E;fontColor=#1A1A1A;labelBackgroundColor=#B0E3E6;" edge="1" parent="WIyWlLk6GJQsqaUBKTNV-1" source="huL2BV7gao-9IOFFSJFY-0" target="huL2BV7gao-9IOFFSJFY-4">
          <mxGeometry x="0.7269" relative="1" as="geometry">
            <mxPoint x="130" y="50" as="sourcePoint" />
            <mxPoint x="350" y="50" as="targetPoint" />
            <Array as="points">
              <mxPoint x="130" y="40" />
              <mxPoint x="429" y="40" />
            </Array>
            <mxPoint as="offset" />
          </mxGeometry>
        </mxCell>
        <mxCell id="huL2BV7gao-9IOFFSJFY-9" value="Aluno" style="swimlane;fontStyle=1;align=center;verticalAlign=top;childLayout=stackLayout;horizontal=1;startSize=26;horizontalStack=0;resizeParent=1;resizeParentMax=0;resizeLast=0;collapsible=1;marginBottom=0;fillColor=#F08E81;strokeColor=#FFFFFF;fontColor=#1A1A1A;" vertex="1" parent="WIyWlLk6GJQsqaUBKTNV-1">
          <mxGeometry x="210" y="390" width="160" height="86" as="geometry" />
        </mxCell>
        <mxCell id="huL2BV7gao-9IOFFSJFY-10" value="+ field: type" style="text;strokeColor=none;fillColor=none;align=left;verticalAlign=top;spacingLeft=4;spacingRight=4;overflow=hidden;rotatable=0;points=[[0,0.5],[1,0.5]];portConstraint=eastwest;fontColor=#1A1A1A;" vertex="1" parent="huL2BV7gao-9IOFFSJFY-9">
          <mxGeometry y="26" width="160" height="26" as="geometry" />
        </mxCell>
        <mxCell id="huL2BV7gao-9IOFFSJFY-11" value="" style="line;strokeWidth=1;fillColor=none;align=left;verticalAlign=middle;spacingTop=-1;spacingLeft=3;spacingRight=3;rotatable=0;labelPosition=right;points=[];portConstraint=eastwest;strokeColor=#FFFFFF;fontColor=#1A1A1A;labelBackgroundColor=#B0E3E6;" vertex="1" parent="huL2BV7gao-9IOFFSJFY-9">
          <mxGeometry y="52" width="160" height="8" as="geometry" />
        </mxCell>
        <mxCell id="huL2BV7gao-9IOFFSJFY-12" value="+ method(type): type" style="text;strokeColor=none;fillColor=none;align=left;verticalAlign=top;spacingLeft=4;spacingRight=4;overflow=hidden;rotatable=0;points=[[0,0.5],[1,0.5]];portConstraint=eastwest;fontColor=#1A1A1A;" vertex="1" parent="huL2BV7gao-9IOFFSJFY-9">
          <mxGeometry y="60" width="160" height="26" as="geometry" />
        </mxCell>
        <mxCell id="huL2BV7gao-9IOFFSJFY-13" value="1" style="endArrow=open;html=1;endSize=12;startArrow=diamondThin;startSize=14;startFill=0;edgeStyle=orthogonalEdgeStyle;rounded=0;exitX=0;exitY=0.5;exitDx=0;exitDy=0;strokeColor=#182E3E;fontColor=#1A1A1A;labelBackgroundColor=#B0E3E6;" edge="1" parent="WIyWlLk6GJQsqaUBKTNV-1" source="huL2BV7gao-9IOFFSJFY-5" target="huL2BV7gao-9IOFFSJFY-1">
          <mxGeometry x="0.8667" y="-19" relative="1" as="geometry">
            <mxPoint x="220" y="180" as="sourcePoint" />
            <mxPoint x="380" y="180" as="targetPoint" />
            <mxPoint as="offset" />
          </mxGeometry>
        </mxCell>
        <mxCell id="huL2BV7gao-9IOFFSJFY-15" value="1" style="edgeLabel;resizable=0;html=1;align=right;verticalAlign=top;fontColor=#1A1A1A;labelBackgroundColor=#B0E3E6;" connectable="0" vertex="1" parent="huL2BV7gao-9IOFFSJFY-13">
          <mxGeometry x="1" relative="1" as="geometry" />
        </mxCell>
        <mxCell id="huL2BV7gao-9IOFFSJFY-16" value="Relation" style="endArrow=open;html=1;endSize=12;startArrow=diamondThin;startSize=14;startFill=0;edgeStyle=orthogonalEdgeStyle;rounded=0;entryX=1;entryY=0.5;entryDx=0;entryDy=0;exitX=-0.003;exitY=0.43;exitDx=0;exitDy=0;exitPerimeter=0;strokeColor=#182E3E;fontColor=#1A1A1A;labelBackgroundColor=#B0E3E6;" edge="1" parent="WIyWlLk6GJQsqaUBKTNV-1" source="huL2BV7gao-9IOFFSJFY-20" target="huL2BV7gao-9IOFFSJFY-10">
          <mxGeometry x="0.3421" relative="1" as="geometry">
            <mxPoint x="520" y="152.63" as="sourcePoint" />
            <mxPoint x="680" y="152.63" as="targetPoint" />
            <Array as="points">
              <mxPoint x="620" y="268" />
              <mxPoint x="620" y="260" />
              <mxPoint x="580" y="260" />
              <mxPoint x="580" y="429" />
            </Array>
            <mxPoint as="offset" />
          </mxGeometry>
        </mxCell>
        <mxCell id="huL2BV7gao-9IOFFSJFY-19" value="Matricula" style="swimlane;fontStyle=1;align=center;verticalAlign=top;childLayout=stackLayout;horizontal=1;startSize=26;horizontalStack=0;resizeParent=1;resizeParentMax=0;resizeLast=0;collapsible=1;marginBottom=0;fillColor=#F08E81;strokeColor=#FFFFFF;fontColor=#1A1A1A;" vertex="1" parent="WIyWlLk6GJQsqaUBKTNV-1">
          <mxGeometry x="640" y="210" width="160" height="134" as="geometry" />
        </mxCell>
        <mxCell id="huL2BV7gao-9IOFFSJFY-20" value="- data: Date&#xa;- aluno: Aluno&#xa;- turma: Turma&#xa;- curso: Curso" style="text;strokeColor=none;fillColor=none;align=left;verticalAlign=top;spacingLeft=4;spacingRight=4;overflow=hidden;rotatable=0;points=[[0,0.5],[1,0.5]];portConstraint=eastwest;fontColor=#1A1A1A;" vertex="1" parent="huL2BV7gao-9IOFFSJFY-19">
          <mxGeometry y="26" width="160" height="74" as="geometry" />
        </mxCell>
        <mxCell id="huL2BV7gao-9IOFFSJFY-21" value="" style="line;strokeWidth=1;fillColor=none;align=left;verticalAlign=middle;spacingTop=-1;spacingLeft=3;spacingRight=3;rotatable=0;labelPosition=right;points=[];portConstraint=eastwest;strokeColor=#FFFFFF;fontColor=#1A1A1A;labelBackgroundColor=#B0E3E6;" vertex="1" parent="huL2BV7gao-9IOFFSJFY-19">
          <mxGeometry y="100" width="160" height="8" as="geometry" />
        </mxCell>
        <mxCell id="huL2BV7gao-9IOFFSJFY-22" value="+ method(type): type" style="text;strokeColor=none;fillColor=none;align=left;verticalAlign=top;spacingLeft=4;spacingRight=4;overflow=hidden;rotatable=0;points=[[0,0.5],[1,0.5]];portConstraint=eastwest;fontColor=#1A1A1A;" vertex="1" parent="huL2BV7gao-9IOFFSJFY-19">
          <mxGeometry y="108" width="160" height="26" as="geometry" />
        </mxCell>
        <mxCell id="huL2BV7gao-9IOFFSJFY-23" value="Relation" style="endArrow=open;html=1;endSize=12;startArrow=diamondThin;startSize=14;startFill=0;edgeStyle=orthogonalEdgeStyle;rounded=0;exitX=0.438;exitY=0;exitDx=0;exitDy=0;exitPerimeter=0;entryX=1.016;entryY=0.13;entryDx=0;entryDy=0;entryPerimeter=0;strokeColor=#182E3E;fontColor=#1A1A1A;labelBackgroundColor=#B0E3E6;" edge="1" parent="WIyWlLk6GJQsqaUBKTNV-1" source="huL2BV7gao-9IOFFSJFY-19" target="huL2BV7gao-9IOFFSJFY-5">
          <mxGeometry relative="1" as="geometry">
            <mxPoint x="450" y="220" as="sourcePoint" />
            <mxPoint x="610" y="220" as="targetPoint" />
          </mxGeometry>
        </mxCell>
        <mxCell id="huL2BV7gao-9IOFFSJFY-24" value="10..70" style="edgeLabel;resizable=0;html=1;align=left;verticalAlign=top;fontColor=#1A1A1A;labelBackgroundColor=#B0E3E6;" connectable="0" vertex="1" parent="huL2BV7gao-9IOFFSJFY-23">
          <mxGeometry x="-1" relative="1" as="geometry">
            <mxPoint y="-40" as="offset" />
          </mxGeometry>
        </mxCell>
        <mxCell id="huL2BV7gao-9IOFFSJFY-25" value="1" style="edgeLabel;resizable=0;html=1;align=right;verticalAlign=top;fontColor=#1A1A1A;labelBackgroundColor=#B0E3E6;" connectable="0" vertex="1" parent="huL2BV7gao-9IOFFSJFY-23">
          <mxGeometry x="1" relative="1" as="geometry">
            <mxPoint x="28" as="offset" />
          </mxGeometry>
        </mxCell>
        <mxCell id="huL2BV7gao-9IOFFSJFY-26" value="" style="endArrow=open;html=1;endSize=12;startArrow=diamondThin;startSize=14;startFill=1;edgeStyle=orthogonalEdgeStyle;align=left;verticalAlign=bottom;rounded=0;entryX=0.75;entryY=0;entryDx=0;entryDy=0;exitX=0.75;exitY=0;exitDx=0;exitDy=0;strokeColor=#182E3E;fontColor=#1A1A1A;labelBackgroundColor=#B0E3E6;" edge="1" parent="WIyWlLk6GJQsqaUBKTNV-1" source="huL2BV7gao-9IOFFSJFY-4" target="huL2BV7gao-9IOFFSJFY-19">
          <mxGeometry x="0.9126" y="21" relative="1" as="geometry">
            <mxPoint x="480.0000000000001" y="100.00000000000006" as="sourcePoint" />
            <mxPoint x="778.8000000000002" y="88.32000000000005" as="targetPoint" />
            <Array as="points">
              <mxPoint x="480" y="30" />
              <mxPoint x="760" y="30" />
            </Array>
            <mxPoint as="offset" />
          </mxGeometry>
        </mxCell>
      </root>
    </mxGraphModel>
  </diagram>
</mxfile>
